<?xml version="1.0" encoding="utf-8"?><!-- Uploaded to: SVG Repo, www.svgrepo.com, Generator: SVG Repo Mixer Tools -->
<svg width="800px" height="800px" viewBox="0 -0.5 25 25" fill="none" xmlns="http://www.w3.org/2000/svg">
<path fill-rule="evenodd" clip-rule="evenodd" d="M5.5 5C5.5 3.89543 6.39543 3 7.5 3C8.60457 3 9.5 3.89543 9.5 5C9.5 6.10457 8.60457 7 7.5 7C6.96957 7 6.46086 6.78929 6.08579 6.41421C5.71071 6.03914 5.5 5.53043 5.5 5Z" stroke="#000000" stroke-width="1.5" stroke-linecap="round" stroke-linejoin="round"/>
<path fill-rule="evenodd" clip-rule="evenodd" d="M15.5 5C15.5 3.89543 16.3954 3 17.5 3C18.6046 3 19.5 3.89543 19.5 5C19.5 6.10457 18.6046 7 17.5 7C16.3954 7 15.5 6.10457 15.5 5Z" stroke="#000000" stroke-width="1.5" stroke-linecap="round" stroke-linejoin="round"/>
<path fill-rule="evenodd" clip-rule="evenodd" d="M10.5 19C10.5 17.8954 11.3954 17 12.5 17C13.6046 17 14.5 17.8954 14.5 19C14.5 20.1046 13.6046 21 12.5 21C11.9696 21 11.4609 20.7893 11.0858 20.4142C10.7107 20.0391 10.5 19.5304 10.5 19Z" stroke="#000000" stroke-width="1.5" stroke-linecap="round" stroke-linejoin="round"/>
<path d="M8.25002 7C8.25002 6.58579 7.91423 6.25 7.50002 6.25C7.08581 6.25 6.75002 6.58579 6.75002 7H8.25002ZM7.50002 10.03L8.25002 10.0331V10.03H7.50002ZM7.95302 11.479L8.57182 11.0552L8.56771 11.0493L7.95302 11.479ZM9.78602 12.454L9.78043 13.204H9.78602V12.454ZM15.214 12.454V13.204C15.2216 13.204 15.2291 13.2039 15.2366 13.2037L15.214 12.454ZM17.5 10.03H16.75C16.75 10.0371 16.7501 10.0442 16.7503 10.0513L17.5 10.03ZM18.25 7C18.25 6.58579 17.9142 6.25 17.5 6.25C17.0858 6.25 16.75 6.58579 16.75 7H18.25ZM11.75 17C11.75 17.4142 12.0858 17.75 12.5 17.75C12.9142 17.75 13.25 17.4142 13.25 17H11.75ZM13.25 12.455C13.25 12.0408 12.9142 11.705 12.5 11.705C12.0858 11.705 11.75 12.0408 11.75 12.455H13.25ZM6.75002 7V10.03H8.25002V7H6.75002ZM6.75003 10.0269C6.74727 10.6999 6.95276 11.3572 7.33833 11.9087L8.56771 11.0493C8.3595 10.7514 8.24852 10.3965 8.25001 10.0331L6.75003 10.0269ZM7.33425 11.9028C7.8876 12.7107 8.80124 13.1967 9.78043 13.204L9.79161 11.704C9.30333 11.7004 8.84773 11.458 8.57179 11.0552L7.33425 11.9028ZM9.78602 13.204H15.214V11.704H9.78602V13.204ZM15.2366 13.2037C16.9503 13.152 18.2985 11.7224 18.2497 10.0087L16.7503 10.0513C16.7756 10.938 16.078 11.6776 15.1914 11.7043L15.2366 13.2037ZM18.25 10.03V7H16.75V10.03H18.25ZM13.25 17V12.455H11.75V17H13.25Z" fill="#000000"/>
</svg>